<svg t="1571306047307" class="icon" viewBox="0 0 1024 1024" version="1.1" xmlns="http://www.w3.org/2000/svg" p-id="2494" width="64" height="64"><path d="M978.702 944.452l-445.171-444.892 444.876-445.155c9.103-9.103 9.103-23.861 0-32.949-9.103-9.103-23.861-9.103-32.949 0l-444.892 445.171-445.171-444.892c-9.103-9.103-23.861-9.103-32.949 0-9.103 9.103-9.103 23.861 0 32.965l445.171 444.892-444.876 445.155c-9.103 9.103-9.103 23.861 0 32.949 9.103 9.103 23.861 9.103 32.949 0l444.892-445.171 445.155 444.876c9.103 9.103 23.861 9.103 32.949 0 9.119-9.087 9.119-23.845 0.016-32.949z" p-id="2495" fill="#8a8a8a"></path></svg>